<svg width="32" height="32" viewBox="0 0 100 100" fill="none" xmlns="http://www.w3.org/2000/svg">
<rect width="100" height="100" rx="22" fill="#f97316"/>
<path d="M47.5435 64.0716L31.1272 33.7255C19.3719 52.8378 26.5322 41.1936 21.3381 49.6405C25.9001 58.0734 30.4642 66.5052 35.0262 74.9381L63.7768 75.739L65.263 73.3212C46.4936 38.6253 54.394 53.1923 42.0049 30.2906L62.1574 30.8466L65.5921 37.1957C61.272 37.0717 56.9519 36.9421 52.6321 36.8237C58.1013 46.9339 63.573 57.0485 69.0471 67.1676C76.4266 55.1693 78.3928 51.972 78.8373 51.2491C74.2732 42.8174 69.7102 34.3879 65.146 25.9562L36.3976 25.1541L34.9114 27.5719C53.676 62.2589 45.7913 47.7207 58.1696 70.6025L38.0242 70.0598L34.5908 63.7129L47.5447 64.0738L47.5435 64.0716Z" fill="white"/>
</svg>
