<svg width="1024" height="1024" viewBox="0 0 100 100" fill="none" xmlns="http://www.w3.org/2000/svg">
  <defs>
    <linearGradient id="tileBase" x1="18" y1="10" x2="84" y2="92" gradientUnits="userSpaceOnUse">
      <stop offset="0" stop-color="#ff8b45"/>
      <stop offset="0.52" stop-color="#f97316"/>
      <stop offset="1" stop-color="#df5608"/>
    </linearGradient>
    <radialGradient id="topReflection" cx="0" cy="0" r="1" gradientUnits="userSpaceOnUse" gradientTransform="translate(20 13) rotate(47) scale(45 34)">
      <stop offset="0" stop-color="#ffffff" stop-opacity="0.50"/>
      <stop offset="0.42" stop-color="#ffffff" stop-opacity="0.18"/>
      <stop offset="1" stop-color="#ffffff" stop-opacity="0"/>
    </radialGradient>
    <radialGradient id="bottomReflection" cx="0" cy="0" r="1" gradientUnits="userSpaceOnUse" gradientTransform="translate(82 88) rotate(-132) scale(38 30)">
      <stop offset="0" stop-color="#ffd0a8" stop-opacity="0.34"/>
      <stop offset="0.46" stop-color="#ff9a4a" stop-opacity="0.16"/>
      <stop offset="1" stop-color="#ff9a4a" stop-opacity="0"/>
    </radialGradient>
    <linearGradient id="edgeStroke" x1="15" y1="8" x2="85" y2="94" gradientUnits="userSpaceOnUse">
      <stop offset="0" stop-color="#ffffff" stop-opacity="0.46"/>
      <stop offset="0.52" stop-color="#ffffff" stop-opacity="0.10"/>
      <stop offset="1" stop-color="#8b2f05" stop-opacity="0.22"/>
    </linearGradient>
    <filter id="tileShadow" x="0" y="0" width="100" height="100" color-interpolation-filters="sRGB">
      <feDropShadow dx="0" dy="3" stdDeviation="2.5" flood-color="#7c2d12" flood-opacity="0.24"/>
    </filter>
    <clipPath id="tileClip">
      <rect x="6" y="6" width="88" height="88" rx="20"/>
    </clipPath>
  </defs>

  <rect x="6" y="6" width="88" height="88" rx="20" fill="url(#tileBase)" filter="url(#tileShadow)"/>
  <g clip-path="url(#tileClip)">
    <rect x="6" y="6" width="88" height="88" rx="20" fill="url(#topReflection)"/>
    <rect x="6" y="6" width="88" height="88" rx="20" fill="url(#bottomReflection)"/>
    <path d="M9 28C18 14 34 8 52 8H75C84 8 91 15 92 24C74 19 53 22 35 32C23 38 14 38 9 28Z" fill="#ffffff" opacity="0.10"/>
    <path d="M18 91C36 81 59 81 84 91C80 94 75 96 69 96H28C24 96 20 94 18 91Z" fill="#7c2d12" opacity="0.14"/>
  </g>
  <rect x="6.75" y="6.75" width="86.5" height="86.5" rx="19.25" stroke="url(#edgeStroke)" stroke-width="1.5"/>
  <path
    d="M47.5435 64.0716L31.1272 33.7255C19.3719 52.8378 26.5322 41.1936 21.3381 49.6405C25.9001 58.0734 30.4642 66.5052 35.0262 74.9381L63.7768 75.739L65.263 73.3212C46.4936 38.6253 54.394 53.1923 42.0049 30.2906L62.1574 30.8466L65.5921 37.1957C61.272 37.0717 56.9519 36.9421 52.6321 36.8237C58.1013 46.9339 63.573 57.0485 69.0471 67.1676C76.4266 55.1693 78.3928 51.972 78.8373 51.2491C74.2732 42.8174 69.7102 34.3879 65.146 25.9562L36.3976 25.1541L34.9114 27.5719C53.676 62.2589 45.7913 47.7207 58.1696 70.6025L38.0242 70.0598L34.5908 63.7129L47.5447 64.0738L47.5435 64.0716Z"
    fill="white"
  />
</svg>
